PathFileType  4	(X/Y/Z) C:\Users\antoi\Documents\MyRepositories\mobilecap\ResultsAnalysis
DataRate	CameraRate	NumFrames	NumMarkers	Units	OrigDataRate	OrigDataStartFrame	OrigNumFrames
100.0	100.0	5	51	mm	100.0	35	137
Frame#	Time	r_knee			r_shank_antsup			r_ankle			r_calc			r_5meta			r_toe			L_knee			L_shank_antsup			L_ankle			L_calc			L_5meta			L_toe			r_sh2			r_sh3			r_sh4			L_sh2			L_sh3			r_thigh1			r_thigh2			r_thigh3			r_thigh4			r_thigh5			L_thigh1			L_thigh2			L_thigh3			L_thigh4			r.ASIS			r.PSIS			L.ASIS			L.PSIS			C7			R_Shoulder			L_Shoulder			R_Sternum			L_Sternum			R_humerus			R_elbow_med			R_elbow_lat			R_forearm			R_wrist_radius			R_wrist_ulna			L_humerus			L_elbow_med			L_elbow_lat			L_forearm			L_wrist_radius			L_wrist_ulna			R_HJC			L_HJC			R_HJC_reg			L_HJC_reg			
		X1	Y1	Z1	X2	Y2	Z2	X3	Y3	Z3	X4	Y4	Z4	X5	Y5	Z5	X6	Y6	Z6	X7	Y7	Z7	X8	Y8	Z8	X9	Y9	Z9	X10	Y10	Z10	X11	Y11	Z11	X12	Y12	Z12	X13	Y13	Z13	X14	Y14	Z14	X15	Y15	Z15	X16	Y16	Z16	X17	Y17	Z17	X18	Y18	Z18	X19	Y19	Z19	X20	Y20	Z20	X21	Y21	Z21	X22	Y22	Z22	X23	Y23	Z23	X24	Y24	Z24	X25	Y25	Z25	X26	Y26	Z26	X27	Y27	Z27	X28	Y28	Z28	X29	Y29	Z29	X30	Y30	Z30	X31	Y31	Z31	X32	Y32	Z32	X33	Y33	Z33	X34	Y34	Z34	X35	Y35	Z35	X36	Y36	Z36	X37	Y37	Z37	X38	Y38	Z38	X39	Y39	Z39	X40	Y40	Z40	X41	Y41	Z41	X42	Y42	Z42	X43	Y43	Z43	X44	Y44	Z44	X45	Y45	Z45	X46	Y46	Z46	X47	Y47	Z47	X48	Y48	Z48	X49	Y49	Z49	X50	Y50	Z50	X51	Y51	Z51	

35	0.34000000	181.86121	542.10968	-84.48558	217.13055	450.13652	-110.24241	148.00949	116.62093	-148.37247	59.36825	75.23985	-185.01248	266.56884	47.87571	-128.51584	315.21740	75.94965	-201.16586	232.16372	563.36640	-402.06177	195.71397	484.82258	-421.24772	-46.41835	258.95588	-359.69772	-138.10262	265.53408	-302.64174	-7.89404	124.25422	-390.34430	57.82709	113.48007	-330.73109	209.34769	338.47906	-94.64505	165.72128	460.02165	-55.50567	135.89182	346.92468	-52.52037	130.37872	546.72370	-414.47222	56.85621	449.22828	-403.41410	239.26918	870.63263	-58.58517	246.92445	761.02637	-72.47571	199.86581	730.16586	-34.38267	135.22071	857.06325	-19.01779	144.08399	743.22686	-38.25401	218.94238	860.86985	-393.63335	271.50292	730.07925	-391.61658	118.67301	819.24592	-406.40404	166.07200	691.53184	-409.19851	212.80932	1090.36272	-86.23778	21.95505	1082.71291	-122.51096	170.77498	1079.71806	-334.12236	-0.05655	1080.66794	-231.21437	100.21485	1640.67786	-222.42827	169.27621	1571.70538	-62.73640	85.12864	1557.36227	-387.35276	201.02516	1522.70327	-207.21383	184.54924	1519.06912	-262.94125	164.01362	1419.92396	16.55831	53.67667	1227.23959	4.60091	78.89187	1251.33336	82.73176	151.56523	1093.38790	112.89660	200.60928	1008.84883	106.93935	160.60822	1010.99731	132.53498	39.07019	1432.50169	-456.53698	-7.75617	1197.05294	-389.76406	-9.79641	1210.80716	-472.58644	37.03649	1154.18610	-502.90986	116.85838	993.30733	-519.26346	78.72488	981.02712	-526.49833	143.43908	965.94960	-90.45862	102.27801	963.86479	-293.27919	160.07103	998.49116	-109.93389	127.11405	995.42889	-272.68965	
36	0.35000000	186.78072	542.01164	-84.40581	221.07946	449.68969	-110.04834	148.32927	116.89922	-148.52535	59.41977	75.27687	-185.04767	266.57357	47.83585	-128.47095	315.27128	75.70419	-201.16485	256.00955	567.14961	-400.04034	221.95784	487.46035	-419.81004	-10.62299	250.95213	-360.76022	-102.94846	250.58908	-303.67334	36.52552	120.33087	-394.11151	102.41896	112.33342	-334.42187	211.85611	338.10912	-94.51018	169.45314	460.16903	-55.59364	138.29008	347.43567	-52.77279	153.95017	546.54027	-412.54487	84.61037	445.88428	-402.47118	249.49676	869.85607	-58.14297	255.59024	760.13293	-71.93407	207.84630	730.00700	-34.10829	145.06341	857.71779	-18.88213	152.30857	743.81782	-38.23187	236.64649	865.12923	-392.51280	292.12616	735.62206	-389.30781	137.21603	821.26929	-407.17489	187.74956	694.62199	-409.46329	224.98089	1090.64954	-85.63437	34.31893	1083.65035	-122.94822	184.05385	1081.37371	-333.60244	12.71243	1081.85777	-231.88616	113.53926	1641.52045	-222.28591	182.61086	1572.90280	-62.73103	98.16621	1558.17818	-387.24514	214.30882	1523.68845	-207.16561	197.77784	1519.92715	-262.83123	179.38892	1421.53154	16.82451	72.19381	1226.93387	5.90885	97.40974	1251.73893	83.96074	174.68654	1095.81985	113.52182	226.25877	1012.92687	107.36159	186.21569	1013.70835	132.91281	50.99678	1433.18240	-455.71011	1.15616	1199.24158	-386.63566	-1.08846	1212.13979	-469.45323	43.29700	1153.74724	-499.73370	116.31193	989.66735	-514.98097	77.67835	978.75704	-521.93893	155.39044	966.41681	-90.80201	115.27031	965.35868	-293.84170	172.12343	999.43442	-109.70311	139.83543	996.75601	-272.49734	
37	0.36000000	191.46893	541.83304	-84.27954	224.88473	449.14399	-109.72000	148.64275	117.18723	-148.74628	59.50527	75.33315	-185.12620	266.58136	47.79791	-128.43007	315.29361	75.43115	-201.17434	278.97066	570.71429	-397.85109	247.43742	489.96582	-418.22588	25.97967	242.23319	-361.76055	-66.47608	234.84297	-304.69499	81.57491	116.11133	-397.57311	147.66104	111.16977	-337.86184	214.11778	337.65698	-94.25758	172.85229	460.23779	-55.73479	140.33909	347.91590	-53.17337	176.69687	545.85843	-410.13877	112.07460	441.99847	-401.30672	259.47119	868.88291	-57.31061	264.01290	759.03784	-70.97962	215.40601	729.68074	-33.63454	154.51850	858.21415	-18.81530	160.13490	744.28312	-38.27908	254.22857	869.16810	-391.39858	312.34630	740.88572	-386.99317	155.56903	823.18587	-408.08008	209.09250	697.63625	-409.81149	237.06923	1090.67080	-85.05687	46.64578	1084.38031	-123.51211	197.41428	1082.75347	-333.14282	25.48638	1082.79524	-232.67274	126.80958	1642.17267	-222.10708	195.99945	1573.87433	-62.71145	111.26793	1558.82535	-387.13503	227.58255	1524.47577	-207.11466	211.01123	1520.59646	-262.71555	194.76958	1422.91634	17.06407	90.69530	1226.51990	7.22191	115.85358	1252.03487	85.18635	197.66755	1098.25930	114.08774	251.70101	1017.08923	107.65644	211.72519	1016.49157	133.16935	62.99114	1433.71502	-454.89255	10.14923	1201.35616	-383.52368	7.70847	1213.42731	-466.32436	49.59676	1153.34743	-496.53786	115.63968	986.45694	-510.54064	76.54150	976.89525	-517.30669	167.26062	966.64213	-91.19885	128.29341	966.59218	-294.46597	184.10924	1000.16447	-109.48068	152.54241	997.80052	-272.33293	
38	0.37000000	196.06728	541.59953	-84.16019	228.65551	448.52530	-109.36932	148.96071	117.47584	-149.01431	59.61522	75.41246	-185.23372	266.59201	47.76433	-128.39685	315.28422	75.13572	-201.19487	300.96247	574.03154	-395.53696	272.04860	492.27683	-416.55396	63.43561	232.98512	-362.67279	-28.59701	218.67920	-305.62681	127.04627	111.63952	-400.65973	193.38856	109.97478	-341.02182	216.28179	337.14839	-93.98505	176.13313	460.24485	-55.93084	142.27922	348.37261	-53.64778	198.54344	544.55408	-407.38377	139.26151	437.49075	-399.94295	269.16044	867.74558	-56.24470	272.18760	757.78687	-69.79313	222.62563	729.21420	-33.08151	163.61072	858.55778	-18.83384	167.64339	744.62249	-38.42205	271.64629	872.94299	-390.26552	332.07822	745.77858	-384.69986	173.76518	824.97434	-409.06919	230.03757	700.51158	-410.13107	249.04129	1090.43752	-84.45441	58.90571	1084.88410	-124.20120	210.89553	1083.85855	-332.67519	38.26906	1083.47543	-233.56563	140.03450	1642.62803	-221.90691	209.46863	1574.58427	-62.68845	124.43342	1559.29050	-387.02962	240.85163	1525.04546	-207.07218	224.25712	1521.06202	-262.60013	210.17088	1424.04050	17.26884	109.15879	1225.96896	8.56028	134.22871	1252.19609	86.41991	220.48466	1100.65898	114.59198	276.90936	1021.28479	107.80829	237.10137	1019.29640	133.30150	75.02628	1434.08565	-454.08287	19.23673	1203.38533	-380.41976	16.59433	1214.65283	-463.19992	55.94668	1152.98070	-493.32048	114.88937	983.66693	-505.97690	75.39634	975.44553	-512.62915	179.02645	966.62650	-91.60686	141.38376	967.56231	-295.11860	196.01525	1000.67231	-109.24006	165.27167	998.57451	-272.16198	
39	0.38000000	200.72386	541.33348	-84.09562	232.48914	447.85886	-109.09837	149.28918	117.75715	-149.30268	59.73681	75.51305	-185.35447	266.60521	47.73573	-128.37359	315.25469	74.83077	-201.22256	321.92495	577.04904	-393.16630	295.73681	494.29970	-414.87229	101.77150	223.41705	-363.44021	10.69524	202.48731	-306.35149	172.77036	107.01757	-403.31971	239.43302	108.75954	-343.87178	218.49575	336.61020	-93.78389	179.50887	460.20796	-56.17524	144.34171	348.80986	-54.12116	219.48626	542.48886	-404.48039	166.21581	432.29681	-398.40839	278.56531	866.48121	-55.12429	280.14642	756.43583	-68.57872	229.62090	728.63981	-32.57596	172.40511	858.75854	-18.96371	174.94126	744.84115	-38.67379	288.84762	876.39476	-389.08869	351.25193	750.21098	-382.43605	191.83260	826.62227	-410.07429	250.49148	703.16649	-410.30597	260.87156	1089.97140	-83.78407	71.07209	1085.15317	-125.01683	224.51484	1084.69516	-332.13653	51.06456	1083.89792	-234.56074	153.23054	1642.88465	-221.69781	223.02391	1575.00909	-62.67465	137.65913	1559.56555	-386.93963	254.12853	1525.39212	-207.04577	237.52152	1521.32728	-262.49403	225.59511	1424.88258	17.43422	127.55864	1225.26351	9.93909	152.55436	1252.20594	87.67263	243.11987	1102.97249	115.02497	301.85381	1025.45385	107.79624	262.30618	1022.07513	133.30242	87.07833	1434.28712	-453.28237	28.42851	1205.32378	-377.32077	25.56259	1215.79908	-460.08206	62.35234	1152.64385	-490.08067	114.13228	981.23909	-501.31907	74.33995	974.40434	-507.93451	190.66945	966.38106	-91.98862	154.56914	968.27098	-295.76778	207.82446	1000.96149	-108.95596	178.05247	999.09427	-271.95131	
